<?xml version="1.0" encoding="UTF-8" standalone="no"?>
<!-- Created with Inkscape (http://www.inkscape.org/) -->

<svg
   style="background-color: black"
   width="1280"
   height="720"
   viewBox="0 0 338.66666 190.5"
   version="1.1"
   id="svg5"
   xml:space="preserve"
   inkscape:version="1.2.2 (732a01da63, 2022-12-09)"
   sodipodi:docname="gitTime.svg"
   xmlns:inkscape="http://www.inkscape.org/namespaces/inkscape"
   xmlns:sodipodi="http://sodipodi.sourceforge.net/DTD/sodipodi-0.dtd"
   xmlns="http://www.w3.org/2000/svg"
   xmlns:svg="http://www.w3.org/2000/svg"><sodipodi:namedview
     id="namedview7"
     pagecolor="#bcc"
     bordercolor="currentColor"
     borderopacity="0.25"
     inkscape:showpageshadow="2"
     inkscape:pageopacity="0.0"
     inkscape:pagecheckerboard="true"
     inkscape:deskcolor="#d1d1d1"
     inkscape:document-units="px"
     showgrid="false"
     inkscape:zoom="0.71624579"
     inkscape:cx="609.42766"
     inkscape:cy="303.66671"
     inkscape:window-width="1920"
     inkscape:window-height="991"
     inkscape:window-x="-9"
     inkscape:window-y="-9"
     inkscape:window-maximized="1"
     inkscape:current-layer="layer1" /><defs
     
     id="defs2"><clipPath
       id="a"><path
         d="M159 .79h25V69h-25Zm0 0"
         id="path265" /></clipPath><clipPath
       id="b"><path
         d="M183 9h35.371v60H183Zm0 0"
         id="path268" /></clipPath><clipPath
       id="c"><path
         d="M0 .79h92V92H0Zm0 0"
         id="path271" /></clipPath></defs><g
     inkscape:label="Layer 1"
     inkscape:groupmode="layer"
     id="layer1"><g
       style="fill:#000000"
       id="g130"
       transform="matrix(0.19214104,0,0,0.19214104,17.916603,62.865985)"><g
         id="g108">
	<g
   id="g106">
		<path
   d="m 228.749,361.374 c -9.323,1.727 -18.932,2.639 -28.748,2.639 -86.831,0 -157.458,-70.641 -157.458,-157.458 0,-86.817 70.627,-157.458 157.458,-157.458 86.831,0 157.458,70.64 157.458,157.457 0,1.252 -0.02,2.501 -0.049,3.747 0.701,-0.065 1.408,-0.104 2.127,-0.104 9.631,0 17.881,5.992 21.234,14.441 h 0.23 c 6.312,0 12.332,1.271 17.822,3.566 0.77,-7.114 1.176,-14.336 1.176,-21.65 0,-110.276 -89.725,-200 -200,-200 -110.276,0 -200,89.724 -200,200 0,110.275 89.724,200 200,200 14.543,0 28.725,-1.575 42.395,-4.538 -8.426,-8.399 -13.646,-20.012 -13.646,-32.82 z"
   id="path80"
   style="fill:#bcc" />
		<path
   d="m 178.717,105.287 v 87.93 h -55.313 c -11.728,0 -21.257,9.529 -21.257,21.284 0,11.742 9.529,21.271 21.257,21.271 h 76.598 c 11.757,0 21.284,-9.528 21.284,-21.271 V 105.287 c 0,-11.742 -9.526,-21.271 -21.284,-21.271 -11.758,0 -21.285,9.529 -21.285,21.271 z"
   id="path82"
   style="fill:#bcc" />
		<path
   d="m 308.172,260.032 c 0,-2.854 -0.994,-5.592 -2.812,-7.774 V 233.04 c 0,-5.152 -4.193,-9.344 -9.348,-9.344 h -0.195 c -5.15,0 -9.342,4.191 -9.342,9.344 v 19.218 c -1.82,2.187 -2.814,4.924 -2.814,7.774 0,6.703 5.453,12.156 12.254,12.156 h 0.1 c 6.704,0 12.157,-5.453 12.157,-12.156 z"
   id="path84"
   style="fill:#bcc" />
		<path
   d="M 336.736,252.258 V 233.04 c 0,-5.152 -4.193,-9.344 -9.348,-9.344 -5.155,0 -9.346,4.191 -9.346,9.344 v 19.219 c -1.816,2.188 -2.812,4.924 -2.812,7.773 0,6.703 5.453,12.156 12.158,12.156 6.703,0 12.158,-5.453 12.158,-12.156 0.003,-2.851 -0.991,-5.59 -2.81,-7.774 z"
   id="path86"
   style="fill:#bcc" />
		<path
   d="m 358.766,223.696 c -5.154,0 -9.346,4.191 -9.346,9.344 v 19.218 c -1.818,2.182 -2.812,4.919 -2.812,7.774 0,6.703 5.453,12.156 12.156,12.156 6.705,0 12.16,-5.453 12.16,-12.156 0,-2.849 -0.996,-5.586 -2.816,-7.773 V 233.04 c -10e-4,-5.152 -4.192,-9.344 -9.342,-9.344 z"
   id="path88"
   style="fill:#bcc" />
		<path
   d="m 380.23,238.137 h -3.461 v 18.687 h 3.461 c 7.824,0 14.191,6.364 14.191,14.188 v 98.186 c 0,7.823 -6.367,14.188 -14.191,14.188 H 274.354 c -7.824,0 -14.189,-6.365 -14.189,-14.188 v -98.186 c 0,-7.822 6.365,-14.188 14.189,-14.188 h 3.461 v -18.687 h -3.461 c -18.129,0 -32.877,14.747 -32.877,32.873 v 98.186 c 0,18.126 14.748,32.873 32.877,32.873 H 380.23 c 18.129,0 32.877,-14.747 32.877,-32.873 V 271.01 c 0,-18.126 -14.748,-32.873 -32.877,-32.873 z"
   id="path90"
   style="fill:#bcc" />
		<path
   d="m 286.586,315.327 c -6.727,0 -12.195,5.47 -12.195,12.194 0,6.724 5.471,12.193 12.195,12.193 6.723,0 12.193,-5.47 12.193,-12.193 0,-6.723 -5.47,-12.194 -12.193,-12.194 z"
   id="path92"
   style="fill:#bcc" />
		<path
   d="m 327.295,315.327 c -6.725,0 -12.193,5.47 -12.193,12.194 0,6.724 5.469,12.193 12.193,12.193 6.723,0 12.191,-5.47 12.191,-12.193 0,-6.723 -5.468,-12.194 -12.191,-12.194 z"
   id="path94"
   style="fill:#bcc" />
		<path
   d="m 368.002,315.327 c -6.725,0 -12.191,5.47 -12.191,12.194 0,6.724 5.469,12.193 12.191,12.193 6.725,0 12.191,-5.47 12.191,-12.193 0.002,-6.723 -5.466,-12.194 -12.191,-12.194 z"
   id="path96"
   style="fill:#bcc" />
		<path
   d="m 286.586,348.037 c -6.727,0 -12.195,5.47 -12.195,12.192 0,6.726 5.471,12.196 12.195,12.196 6.723,0 12.193,-5.471 12.193,-12.196 0,-6.722 -5.47,-12.192 -12.193,-12.192 z"
   id="path98"
   style="fill:#bcc" />
		<path
   d="m 327.295,348.037 c -6.725,0 -12.193,5.47 -12.193,12.192 0,6.726 5.469,12.196 12.193,12.196 6.723,0 12.191,-5.471 12.191,-12.196 0,-6.722 -5.468,-12.192 -12.191,-12.192 z"
   id="path100"
   style="fill:#bcc" />
		<path
   d="m 368.002,348.037 c -6.725,0 -12.191,5.47 -12.191,12.192 0,6.726 5.469,12.196 12.191,12.196 6.725,0 12.191,-5.471 12.191,-12.196 0.002,-6.722 -5.466,-12.192 -12.191,-12.192 z"
   id="path102"
   style="fill:#bcc" />
		<path
   d="m 368.002,282.616 c -6.725,0 -12.191,5.471 -12.191,12.195 0,6.724 5.469,12.195 12.191,12.195 6.725,0 12.191,-5.471 12.191,-12.195 0.002,-6.724 -5.466,-12.195 -12.191,-12.195 z"
   id="path104"
   style="fill:#bcc"/>
	</g>
</g></g><g
       id="g307"
       transform="matrix(0.87024448,0,0,0.87024448,113.30641,64.862143)"><path
         style="fill:#bcc;fill-opacity:1;fill-rule:nonzero;stroke:#bcc"
         d="m 130.871,31.836 c -4.785,0 -8.351,2.352 -8.351,8.008 0,4.261 2.347,7.222 8.093,7.222 4.871,0 8.18,-2.867 8.18,-7.398 0,-5.133 -2.961,-7.832 -7.922,-7.832 z m -9.57,39.95 c -1.133,1.39 -2.262,2.87 -2.262,4.612 0,3.48 4.434,4.524 10.527,4.524 5.051,0 11.926,-0.352 11.926,-5.043 0,-2.793 -3.308,-2.965 -7.488,-3.227 z m 25.761,-39.688 c 1.563,2.004 3.22,4.789 3.22,8.793 0,9.656 -7.571,15.316 -18.536,15.316 -2.789,0 -5.312,-0.348 -6.879,-0.785 l -2.87,4.613 8.526,0.52 c 15.059,0.96 23.934,1.398 23.934,12.968 0,10.008 -8.789,15.665 -23.934,15.665 -15.75,0 -21.757,-4.004 -21.757,-10.88 0,-3.917 1.742,-6 4.789,-8.878 -2.875,-1.211 -3.828,-3.387 -3.828,-5.739 0,-1.914 0.953,-3.656 2.523,-5.312 1.566,-1.652 3.305,-3.305 5.395,-5.219 -4.262,-2.09 -7.485,-6.617 -7.485,-13.058 0,-10.008 6.613,-16.88 19.93,-16.88 3.742,0 6.004,0.344 8.008,0.872 h 16.972 v 7.394 l -8.007,0.61"
         id="path276" /><g
         clip-path="url(#a)"
         id="g280"><path
           style="fill:#bcc;fill-opacity:1;fill-rule:nonzero;stroke:#bcc"
           d="m 170.379,16.281 c -4.961,0 -7.832,-2.87 -7.832,-7.836 0,-4.957 2.871,-7.656 7.832,-7.656 5.05,0 7.922,2.7 7.922,7.656 0,4.965 -2.871,7.836 -7.922,7.836 z M 159.152,68.586 V 61.71 l 4.438,-0.606 c 1.219,-0.175 1.394,-0.437 1.394,-1.746 V 33.773 c 0,-0.953 -0.261,-1.566 -1.132,-1.824 l -4.7,-1.656 0.957,-7.047 h 18.016 V 59.36 c 0,1.399 0.086,1.57 1.395,1.746 l 4.437,0.606 v 6.875 h -24.805"
           id="path278" /></g><g
         clip-path="url(#b)"
         id="g284"><path
           style="fill:#bcc;fill-opacity:1;fill-rule:nonzero;stroke:#bcc"
           d="m 218.371,65.21 c -3.742,1.825 -9.223,3.481 -14.187,3.481 -10.356,0 -14.27,-4.175 -14.27,-14.015 V 31.879 c 0,-0.524 0,-0.871 -0.7,-0.871 h -6.093 v -7.746 c 7.664,-0.871 10.707,-4.703 11.664,-14.188 h 8.27 v 12.36 c 0,0.609 0,0.87 0.695,0.87 h 12.27 v 8.704 h -12.965 v 20.797 c 0,5.136 1.218,7.136 5.918,7.136 2.437,0 4.96,-0.609 7.047,-1.39 l 2.351,7.66"
           id="path282" /></g><g
         clip-path="url(#c)"
         id="g288"><path
           style="fill:#bcc;fill-opacity:1;fill-rule:nonzero;stroke:#bcc"
           d="M 89.422,42.371 49.629,2.582 a 5.868,5.868 0 0 0 -8.3,0 l -8.263,8.262 10.48,10.484 a 6.965,6.965 0 0 1 7.173,1.668 6.98,6.98 0 0 1 1.656,7.215 l 10.102,10.105 a 6.963,6.963 0 0 1 7.214,1.657 6.976,6.976 0 0 1 0,9.875 6.98,6.98 0 0 1 -9.879,0 6.987,6.987 0 0 1 -1.519,-7.594 l -9.422,-9.422 v 24.793 a 6.979,6.979 0 0 1 1.848,1.32 6.988,6.988 0 0 1 0,9.88 c -2.73,2.726 -7.153,2.726 -9.875,0 a 6.98,6.98 0 0 1 0,-9.88 6.893,6.893 0 0 1 2.285,-1.523 V 34.398 A 6.893,6.893 0 0 1 40.844,32.875 6.988,6.988 0 0 1 39.336,25.238 L 29.004,14.902 1.719,42.187 a 5.868,5.868 0 0 0 0,8.301 l 39.793,39.793 a 5.868,5.868 0 0 0 8.3,0 l 39.61,-39.605 a 5.873,5.873 0 0 0 0,-8.305"
           id="path286" /></g></g></g></svg>
